HIERARCHY
ROOT Hips
{
	OFFSET 0.000000 8.830580 0.000000
	CHANNELS 6 Xposition Yposition Zposition Zrotation Yrotation Xrotation 
	JOINT Spine
	{
		OFFSET 0.000000 0.010000 0.000000
		CHANNELS 3 Zrotation Yrotation Xrotation
		JOINT Spine1
		{
			OFFSET 0.000000 2.459130 0.000000
			CHANNELS 3 Zrotation Yrotation Xrotation
			JOINT Neck
			{
				OFFSET 0.000000 2.484630 0.000000
				CHANNELS 3 Zrotation Yrotation Xrotation
				JOINT Head_virtual
				{
					OFFSET 0.000000 0.000000 0.000000
					CHANNELS 3 Zrotation Yrotation Xrotation
					JOINT Head
					{
						OFFSET 0.000000 0.927525 0.000000
						CHANNELS 3 Zrotation Yrotation Xrotation
						End Site
						{
							OFFSET 0.000000 0.000000 0.000000
						}
					}
				}
				JOINT LeftUpArm_virtual
				{
					OFFSET 0.000000 0.000000 0.000000
					CHANNELS 3 Zrotation Yrotation Xrotation
					JOINT LeftUpArm
					{
						OFFSET 1.248820 0.000000 0.000000
						CHANNELS 3 Zrotation Yrotation Xrotation
						JOINT LeftForeArm
						{
							OFFSET 2.597580 0.000000 0.000000
							CHANNELS 3 Zrotation Yrotation Xrotation
							JOINT LeftHand
							{
								OFFSET 2.455420 0.000000 0.000000
								CHANNELS 3 Zrotation Yrotation Xrotation
								End Site
								{
									OFFSET 0.000000 0.000000 0.000000
								}
							}
						}
					}
				}
				JOINT RightUpArm_virtual
				{
					OFFSET -0.000000 -0.000000 -0.000000
					CHANNELS 3 Zrotation Yrotation Xrotation
					JOINT RightUpArm
					{
						OFFSET -1.248820 -0.000000 -0.000000
						CHANNELS 3 Zrotation Yrotation Xrotation
						JOINT RightForeArm
						{
							OFFSET -2.597580 -0.000000 -0.000000
							CHANNELS 3 Zrotation Yrotation Xrotation
							JOINT RightHand
							{
								OFFSET -2.455420 -0.000000 -0.000000
								CHANNELS 3 Zrotation Yrotation Xrotation
								End Site
								{
									OFFSET 0.000000 0.000000 0.000000
								}
							}
						}
					}
				}
			}
		}
	}
	JOINT LeftUpLeg
	{
		OFFSET 1.271939 0.000000 0.000000
		CHANNELS 3 Zrotation Yrotation Xrotation
		JOINT LeftLowLeg
		{
			OFFSET 0.000000 -4.342910 0.000000
			CHANNELS 3 Zrotation Yrotation Xrotation
			JOINT LeftFoot
			{
				OFFSET 0.000000 -4.487670 0.000000
				CHANNELS 3 Zrotation Yrotation Xrotation
				JOINT LeftToeBase
				{
					OFFSET 0.000000 0.000000 1.515070
					CHANNELS 3 Zrotation Yrotation Xrotation
					End Site
					{
						OFFSET 0.000000 0.000000 0.000000
					}
				}
			}
		}
	}
	JOINT RightUpLeg
	{
		OFFSET -1.271939 0.000000 0.000000
		CHANNELS 3 Zrotation Yrotation Xrotation
		JOINT RightLowLeg
		{
			OFFSET 0.000000 -4.342910 0.000000
			CHANNELS 3 Zrotation Yrotation Xrotation
			JOINT RightFoot
			{
				OFFSET 0.000000 -4.487670 0.000000
				CHANNELS 3 Zrotation Yrotation Xrotation
				JOINT RightToeBase
				{
					OFFSET 0.000000 0.000000 1.515070
					CHANNELS 3 Zrotation Yrotation Xrotation
					End Site
					{
						OFFSET 0.000000 0.000000 0.000000
					}
				}
			}
		}
	}
}
MOTION
Frames: 13
Frame Time: 0.041667
-18.755652 8.856323 55.723194 178.879967 8.372038 175.584824 1.343544 0.629217 -12.019535 -5.455897 2.477818 19.679358 0.000000 0.000000 0.000000 9.512491 4.917414 7.812578 -6.101251 -2.713285 -88.157064 -26.889700 3.416340 6.119995 -44.462502 -8.438350 25.758600 0.000000 -20.299700 0.000000 9.618210 15.000900 -5.363710 31.433901 -3.148160 2.553986 44.089001 7.629450 0.850006 0.000000 17.142700 0.000000 4.967010 -11.152500 -21.183399 -5.503780 -7.636966 0.155086 0.000000 0.000000 19.160999 -18.697694 13.695909 -9.724683 0.000000 0.000000 -19.748210 2.531034 21.110264 -4.060850 0.000000 0.000000 24.996000 34.011172 -3.021670 -12.314088 0.000000 0.000000 -16.266630 
-18.752604 8.855147 55.730765 178.913732 8.221004 175.643257 1.250237 0.527440 -11.953614 -5.354137 2.428796 19.441967 0.000000 0.000000 0.000000 9.676611 4.811992 8.074237 -6.086665 -2.721944 -88.103282 -26.873800 3.464770 6.277008 -44.516899 -8.409930 25.550501 0.000000 -20.344400 0.000000 9.563930 15.052100 -5.626000 31.469200 -3.301000 2.721985 44.221500 7.367430 0.730988 0.000000 17.577900 0.000000 4.894890 -11.017900 -21.257900 -5.394703 -7.290923 -0.237549 0.000000 0.000000 19.723700 -18.321576 13.492370 -9.675597 0.000000 0.000000 -19.703860 2.542498 21.044465 -4.214046 0.000000 0.000000 25.163900 34.191566 -2.848889 -12.470660 0.000000 0.000000 -16.256230 
-18.751701 8.854645 55.734784 178.897508 8.101779 175.740562 1.196673 0.462909 -12.031198 -5.337695 2.391594 19.353428 0.000000 0.000000 0.000000 9.775801 4.719695 8.209364 -6.078361 -2.739278 -88.027706 -26.844900 3.516550 6.326996 -44.581600 -8.333910 25.396200 0.000000 -20.430599 0.000000 9.494700 15.172300 -6.254550 31.525499 -3.435020 2.677002 44.372501 7.040250 0.601990 0.000000 17.900900 0.000000 5.095670 -10.939200 -20.692101 -5.381437 -7.363830 -0.406975 0.000000 0.000000 19.797001 -18.429522 13.375914 -9.679496 0.000000 0.000000 -19.722690 2.485898 21.053542 -4.384418 0.000000 0.000000 25.318600 34.516262 -2.599638 -12.713202 0.000000 0.000000 -16.296580 
-18.752342 8.855381 55.736277 178.820380 8.067588 175.750126 1.138340 0.450372 -12.112080 -5.348936 2.408029 19.354972 0.000000 0.000000 0.000000 9.900159 4.585467 8.389435 -6.123296 -2.782313 -87.995021 -26.814501 3.527470 6.385986 -44.628300 -8.241640 25.384600 0.000000 -20.551701 0.000000 9.587300 15.237400 -6.358750 31.571400 -3.608950 2.539001 44.528999 6.720550 0.872009 0.000000 18.047701 0.000000 4.997620 -10.509500 -21.077499 -5.469800 -7.686943 -0.244612 0.000000 0.000000 19.413099 -18.680173 13.431005 -9.643563 0.000000 0.000000 -19.809600 2.377985 21.032045 -4.466965 0.000000 0.000000 25.504700 34.993577 -2.063246 -13.072624 0.000000 0.000000 -16.511330 
-18.751443 8.855100 55.738399 178.796460 8.058420 175.765639 1.088643 0.416498 -12.147126 -5.296696 2.405210 19.254531 0.000000 0.000000 0.000000 9.972275 4.466772 8.648246 -6.161708 -2.858086 -87.907482 -26.779900 3.528250 6.438995 -44.699100 -8.100270 25.336599 0.000000 -20.646500 0.000000 9.527290 15.401900 -7.025160 31.583700 -3.710850 2.481995 44.704201 6.403570 0.703003 0.000000 18.274401 0.000000 5.195980 -10.761200 -20.853300 -5.463027 -7.632900 -0.289198 0.000000 0.000000 19.448900 -18.789879 13.280761 -9.671129 0.000000 0.000000 -19.771660 2.336236 21.034468 -4.552709 0.000000 0.000000 25.728399 35.574793 -1.424031 -13.612285 0.000000 0.000000 -16.659680 
-18.750643 8.855454 55.739924 178.779461 8.074426 175.830804 1.041976 0.388036 -12.202584 -5.231158 2.403756 19.106162 0.000000 0.000000 0.000000 10.038868 4.360376 8.953311 -6.212360 -2.938766 -87.849852 -26.806900 3.548580 6.520996 -44.710300 -8.002970 25.256100 0.000000 -20.679100 0.000000 9.480360 15.467700 -7.278850 31.575701 -3.876990 2.360992 44.877102 6.125500 1.040009 0.000000 18.186100 0.000000 5.070200 -10.304500 -21.020700 -5.411556 -7.319857 -0.369781 0.000000 0.000000 19.439800 -18.794443 12.963272 -9.569493 0.000000 0.000000 -19.907420 2.267318 20.947105 -4.706534 0.000000 0.000000 25.982201 35.937350 -0.827030 -14.199211 0.000000 0.000000 -16.701900 
-18.749644 8.855062 55.739947 178.775365 8.105648 175.937038 1.012749 0.354574 -12.281839 -5.172693 2.377748 18.885976 0.000000 0.000000 0.000000 10.150488 4.209466 9.311061 -6.332462 -3.017627 -87.754176 -26.795401 3.642700 6.467010 -44.780499 -7.849990 25.333300 0.000000 -20.656200 0.000000 9.360190 15.534500 -7.362760 31.540501 -3.947810 2.281006 45.052399 5.776840 0.893005 0.000000 18.231300 0.000000 5.346850 -10.721600 -20.684700 -5.382836 -7.275743 -0.485240 0.000000 0.000000 19.466200 -18.770438 12.902978 -9.560280 0.000000 0.000000 -19.965800 2.198308 20.857380 -4.886990 0.000000 0.000000 26.215599 36.242438 -0.314928 -14.771129 0.000000 0.000000 -16.782790 
-18.748840 8.855982 55.734878 178.792792 7.983026 176.137724 1.009223 0.270727 -12.592443 -5.139889 2.301924 18.755399 0.000000 0.000000 0.000000 10.349634 3.986438 9.723349 -6.291014 -3.132177 -87.772375 -26.775900 3.600970 6.500000 -44.833599 -7.658560 25.388500 0.000000 -20.586100 0.000000 9.261640 15.627300 -7.653600 31.452600 -4.044120 2.102997 45.285198 5.395120 1.135986 0.000000 17.966499 0.000000 5.333820 -10.697400 -20.761999 -5.315402 -7.147445 -0.724413 0.000000 0.000000 19.583900 -18.647735 12.711979 -9.478496 0.000000 0.000000 -19.973960 2.120077 20.469373 -5.026230 0.000000 0.000000 26.271200 36.316796 0.114703 -15.312232 0.000000 0.000000 -16.732520 
-18.746311 8.858068 55.720564 178.881966 7.612506 176.205000 1.011757 0.037866 -12.973103 -5.064227 2.138551 18.889755 0.000000 0.000000 0.000000 10.482691 3.806397 9.991975 -6.401542 -3.190455 -87.607373 -26.755199 3.652560 6.503998 -44.902699 -7.607970 25.454300 0.000000 -20.480600 0.000000 9.168690 15.940800 -8.339460 31.364300 -4.168720 1.957001 45.471100 5.087820 1.278992 0.000000 17.749800 0.000000 5.454020 -10.713700 -20.884800 -5.242537 -7.392386 -0.746037 0.000000 0.000000 19.653999 -18.505640 12.682295 -9.455122 0.000000 0.000000 -19.945450 2.209688 19.915112 -4.760292 0.000000 0.000000 26.010799 36.279438 0.395351 -15.825286 0.000000 0.000000 -16.818260 
-18.744475 8.859387 55.708625 178.918741 7.481900 176.202725 1.030726 -0.027779 -13.180502 -5.047029 2.072277 18.841886 0.000000 0.000000 0.000000 10.545261 3.739917 10.454796 -6.403557 -3.273522 -87.559059 -26.753099 3.641040 6.556000 -44.911400 -7.502920 25.566799 0.000000 -20.359699 0.000000 9.051550 16.055599 -8.520100 31.357100 -4.234180 1.937988 45.546200 4.829990 1.313995 0.000000 17.264299 0.000000 5.629210 -10.416300 -20.395201 -5.202475 -7.359548 -0.628064 0.000000 0.000000 19.565001 -18.433622 12.571251 -9.416634 0.000000 0.000000 -19.943820 2.285324 19.729937 -4.570612 0.000000 0.000000 25.952200 36.056066 0.490833 -16.354417 0.000000 0.000000 -16.651440 
-18.742386 8.860233 55.694985 178.936322 7.411645 176.171234 1.045416 -0.059502 -13.400207 -5.023989 2.048708 18.854307 0.000000 0.000000 0.000000 10.640953 3.632079 10.849155 -6.377751 -3.346624 -87.462138 -26.763300 3.643120 6.501007 -44.918800 -7.392700 25.717100 0.000000 -20.230000 0.000000 8.923410 16.038300 -8.466650 31.338900 -4.308840 1.894012 45.632900 4.578620 1.390015 0.000000 16.963699 0.000000 5.794860 -10.360600 -19.459700 -5.195004 -7.355767 -0.446187 0.000000 0.000000 19.437500 -18.367360 12.551703 -9.402277 0.000000 0.000000 -19.996020 2.371333 19.753446 -4.375480 0.000000 0.000000 25.935400 35.962657 0.528291 -16.834437 0.000000 0.000000 -16.884980 
-18.740808 8.859701 55.681714 178.944178 7.309232 176.154596 1.059853 -0.069860 -13.516810 -5.059977 1.996462 18.654040 0.000000 0.000000 0.000000 10.904880 3.414063 11.379935 -6.436712 -3.387967 -87.359278 -26.742599 3.670490 6.545990 -44.933300 -7.321170 25.733900 0.000000 -20.095800 0.000000 8.820410 16.133499 -8.481300 31.278200 -4.443000 1.885986 45.787498 4.315920 1.373993 0.000000 16.619699 0.000000 5.615620 -10.958000 -20.171400 -5.210994 -7.481871 -0.331503 0.000000 0.000000 19.407900 -18.316790 12.594174 -9.449985 0.000000 0.000000 -19.973310 2.464971 19.980042 -4.264176 0.000000 0.000000 26.086000 35.677866 0.227527 -17.453343 0.000000 0.000000 -16.830080 
-18.738877 8.859591 55.666359 178.973198 7.228592 176.314700 1.103768 -0.048999 -13.857905 -5.103312 1.969114 18.540046 0.000000 0.000000 0.000000 11.265089 3.100332 11.864845 -6.513365 -3.416467 -87.268907 -26.725500 3.700430 6.591003 -44.933601 -7.272920 25.746300 0.000000 -20.054800 0.000000 8.866190 16.174999 -7.831830 31.244200 -4.493850 1.714996 45.903599 3.876670 1.290009 0.000000 16.313601 0.000000 5.809460 -11.149400 -20.125999 -5.186980 -7.627816 -0.389709 0.000000 0.000000 19.407200 -18.359791 12.604369 -9.538137 0.000000 0.000000 -19.919570 2.489081 19.903563 -4.299216 0.000000 0.000000 26.125299 35.446660 0.115026 -17.849135 0.000000 0.000000 -16.912240 
